<svg xmlns="http://www.w3.org/2000/svg" width="40" height="40" viewBox="0 0 40 40">
  <defs>
    <style>
      .cls-1 {
        fill: #ee8700;
      }

      .cls-2 {
        fill: #5aaae7;
      }

      .cls-3 {
        fill: #e6e7e8;
      }

      .cls-4 {
        fill: #ff9811;
      }

      .cls-5 {
        fill: #ffa733;
      }

      .cls-6 {
        fill: #cc7400;
      }
    </style>
  </defs>
  <g id="contact-us" transform="translate(-2 -2)">
    <path id="Path_1" data-name="Path 1" class="cls-1" d="M56.45,22.45l-6.5,6.5H48V14Z" transform="translate(-15.1 -3.876)"/>
    <path id="Path_2" data-name="Path 2" class="cls-2" d="M37.8,5.6V25.1H16V5.6A2.665,2.665,0,0,1,18.725,3h16.35A2.665,2.665,0,0,1,37.8,5.6Z" transform="translate(-4.9 -0.35)"/>
    <path id="Path_3" data-name="Path 3" class="cls-3" d="M29.133,23.41a1.3,1.3,0,0,0,1.84,0l.461-.455,1.84,1.839-.462.455a3.257,3.257,0,0,1-4.6,0L24.538,21.57a3.25,3.25,0,0,1,0-4.6L25,16.52l1.84,1.839-.461.455a1.3,1.3,0,0,0,0,1.839Z" transform="translate(-7.076 -4.76)"/>
    <g id="Group_6" data-name="Group 6" transform="translate(17.325 2.65)">
      <path id="Path_4" data-name="Path 4" class="cls-4" d="M35.764,22.88l3.679,3.679-.917.916a.655.655,0,0,1-.923,0l-.455-.455-1.84-1.839-.461-.462a.655.655,0,0,1,0-.923Z" transform="translate(-28.223 -9.958)"/>
      <path id="Path_5" data-name="Path 5" class="cls-4" d="M25.864,12.98l3.679,3.679-.917.917a.655.655,0,0,1-.923,0l-.455-.455-1.839-1.839-.461-.461a.655.655,0,0,1,0-.923Z" transform="translate(-24.758 -6.493)"/>
      <path id="Path_6" data-name="Path 6" class="cls-4" d="M33.8,3V4.3a1.3,1.3,0,0,1-1.3,1.3H27.3A1.3,1.3,0,0,1,26,4.3V3Z" transform="translate(-25.192 -3)"/>
    </g>
    <path id="Path_7" data-name="Path 7" class="cls-1" d="M11.45,14V28.95H9.5L3,22.45Z" transform="translate(-0.35 -3.876)"/>
    <path id="Path_8" data-name="Path 8" class="cls-5" d="M41.7,27V47.8a1.322,1.322,0,0,1-1.334,1.3H4.334A1.322,1.322,0,0,1,3,47.8V27l6.672,6.5H35.028Z" transform="translate(-0.35 -7.75)"/>
    <path id="Path_9" data-name="Path 9" class="cls-6" d="M49.3,15.3V28.95H48V14Z" transform="translate(-15.307 -3.876)"/>
    <path id="Path_10" data-name="Path 10" d="M41.8,18.2,33.333,9.724V5.333A3.337,3.337,0,0,0,30,2H14a3.337,3.337,0,0,0-3.333,3.333V9.724L2.2,18.2a.667.667,0,0,0-.2.471V40a2,2,0,0,0,2,2H40a2,2,0,0,0,2-2V18.667a.667.667,0,0,0-.2-.471Zm-1.414.471-6,6H33.333V11.609ZM18.667,3.333h6.667V4a.667.667,0,0,1-.667.667H19.333A.667.667,0,0,1,18.667,4ZM14,3.333h3.333V4a2,2,0,0,0,2,2h5.333a2,2,0,0,0,2-2V3.333H30a2,2,0,0,1,2,2V24.667H12V5.333a2,2,0,0,1,2-2ZM10.667,24.667H9.609l-6-6,7.057-7.057ZM40,40.667H4A.667.667,0,0,1,3.333,40V20.276L8.862,25.8a.667.667,0,0,0,.471.2H34.667a.667.667,0,0,0,.471-.2l5.529-5.529V40A.667.667,0,0,1,40,40.667Z"/>
    <path id="Path_11" data-name="Path 11" d="M23.729,20.447l3.677,3.677a3.9,3.9,0,0,0,5.515,0,1.3,1.3,0,0,0,1.838,0l.92-.919a.65.65,0,0,0,0-.919L32,18.609a.65.65,0,0,0-.919,0l-.919.919a1.3,1.3,0,0,0,0,1.838.65.65,0,0,1-.92,0l-2.757-2.757a.65.65,0,0,1,0-.92,1.3,1.3,0,0,0,1.838,0l.919-.919a.65.65,0,0,0,0-.919l-3.677-3.677a.669.669,0,0,0-.919,0l-.918.919a1.3,1.3,0,0,0,0,1.839,3.9,3.9,0,0,0,0,5.515Zm7.814-.46L34.3,22.745l-.46.46-2.758-2.759Zm-6.435-6.435,2.759,2.758-.46.46-2.758-2.759Zm.46,3.217a1.95,1.95,0,0,0,0,2.758l2.757,2.757a1.95,1.95,0,0,0,2.758,0L32,23.2a2.6,2.6,0,0,1-3.677,0l-3.677-3.677a2.6,2.6,0,0,1,0-3.677Z" transform="translate(-6.686 -3.244)"/>
  </g>
</svg>
