<?xml version="1.0" encoding="UTF-8"?>
<svg width="21px" height="20px" viewBox="0 0 21 20" version="1.1" xmlns="http://www.w3.org/2000/svg" xmlns:xlink="http://www.w3.org/1999/xlink">
    <!-- Generator: sketchtool 51.1 (57501) - http://www.bohemiancoding.com/sketch -->
    <title>D9566E97-1008-42E9-8364-2AB44B65688B</title>
    <desc>Created with sketchtool.</desc>
    <defs></defs>
    <g id="Page-1" stroke="none" stroke-width="1" fill="none" fill-rule="evenodd">
        <g id="17-GOM" transform="translate(-652.000000, -762.000000)" fill-rule="nonzero">
            <g id="upload-copy-2" transform="translate(662.500000, 772.000000) scale(1, -1) translate(-662.500000, -772.000000) translate(652.000000, 762.000000)">
                <path d="M15.7157079,4.76118387 L11.1866353,0.28144787 C11.1639061,0.258966691 11.1400509,0.237805507 11.1151947,0.21763432 C11.1043931,0.208848097 11.0927575,0.201051872 11.0815388,0.192719398 C11.0673592,0.18224193 11.0534714,0.171393214 11.0389581,0.161740745 C11.0253623,0.152789523 11.0110575,0.144910797 10.9970863,0.136578323 C10.9839493,0.128782098 10.9710208,0.120573373 10.9575501,0.113478395 C10.9432453,0.105929669 10.92844,0.0994534392 10.9136765,0.0925647107 C10.8996219,0.0860472311 10.8857342,0.0790760029 10.8715545,0.0732185212 C10.8573331,0.0674022894 10.8426113,0.0626585542 10.8280562,0.0574610704 C10.8126671,0.0519748376 10.7974031,0.0461173559 10.7818055,0.0414561204 C10.7673756,0.0370836341 10.7524869,0.033907394 10.7377233,0.0302361555 C10.7217504,0.0262761679 10.7059025,0.0218624317 10.6897627,0.0186449417 C10.6726636,0.0152624523 10.6551476,0.0131999588 10.6377983,0.0107662164 C10.6237438,0.00878622254 10.6098977,0.00614623079 10.5958849,0.00474373518 C10.5643559,0.00173249459 10.5324099,0 10.5000469,0 C10.4676839,0 10.4357379,0.00173249459 10.4041673,0.00478498505 C10.3905298,0.00614623079 10.3769339,0.0087037228 10.3632547,0.0106012169 C10.3455301,0.013117459 10.3276804,0.0152212024 10.3102478,0.0186036919 C10.2946084,0.0216561823 10.2791776,0.0260286687 10.2636633,0.0298649067 C10.248441,0.0336598948 10.2330102,0.0369598845 10.2181216,0.0414561204 C10.2030244,0.0459936063 10.1882191,0.0516860885 10.1734139,0.0569248221 C10.1584001,0.0622460555 10.1431361,0.0671547901 10.1285811,0.0731772713 C10.1148184,0.0788285037 10.1013894,0.0855934825 10.0878353,0.0918634629 C10.072613,0.0989584408 10.0572239,0.10568217 10.0424604,0.113478395 C10.0296987,0.120202124 10.017354,0.1281221 10.0048842,0.135505827 C9.99012067,0.14412705 9.97523201,0.152459524 9.96101062,0.161823244 C9.94749823,0.170856966 9.93448629,0.181004434 9.92122412,0.190821904 C9.90904627,0.199773126 9.8965765,0.208229349 9.884774,0.21771682 C9.86154435,0.236609261 9.83898198,0.256821697 9.8171703,0.278189131 C9.81600256,0.279220377 9.81491824,0.280127875 9.8137922,0.281117872 L5.28426084,4.76114262 C4.90528809,5.1360627 4.90520468,5.74387955 5.28426084,6.11875838 C5.66323359,6.49367846 6.27783923,6.49359596 6.65685369,6.11884088 L9.52948966,3.27771476 L9.52948966,15.0399918 C9.52948966,15.5701763 9.96405509,16 10.5000886,16 C11.0361222,16 11.4706876,15.5701763 11.4706876,15.0399918 L11.4706876,3.27775601 L14.343115,6.11884088 C14.5326223,6.30628029 14.7810586,6.40004125 15.0293698,6.40004125 C15.2777644,6.40004125 15.5262007,6.30628029 15.7157079,6.11884088 C16.094764,5.7439208 16.094764,5.1360627 15.7157079,4.76118387 Z" id="Shape" fill="#64C37D"></path>
                <path d="M20.0454042,10 C19.5182314,10 19.0908494,10.41975 19.0908494,10.9375088 L19.0908494,18.1249824 L1.90906854,18.1249824 L1.90906854,10.9375088 C1.90906854,10.41975 1.48168656,10 0.954513761,10 C0.427340962,10 0,10.41975 0,10.9375088 L0,19.0624912 C0,19.58025 0.427381978,20 0.954554776,20 L20.0454452,20 C20.572618,20 21,19.58025 21,19.0624912 L21,10.9375088 C20.999959,10.41975 20.572577,10 20.0454042,10 Z" id="Shape" fill="#A9A8AE"></path>
            </g>
        </g>
    </g>
</svg>