<svg id="_003---Browser-Question" data-name="003---Browser-Question" xmlns="http://www.w3.org/2000/svg" width="44" height="44" viewBox="0 0 44 44">
  <defs>
    <style>
      .cls-1 {
        fill: #f5f5f5;
      }

      .cls-2 {
        fill: #cfd8dc;
      }

      .cls-3 {
        fill: #e91e63;
      }

      .cls-4 {
        fill: #ad1457;
      }

      .cls-5 {
        fill: #ff9801;
      }

      .cls-6 {
        fill: #f57c00;
      }

      .cls-7 {
        fill: #02a9f4;
      }
    </style>
  </defs>
  <g id="Layer_3" transform="translate(0.81 0.81)">
    <path id="Shape" class="cls-1" d="M25.479,10.872H35.9V8H0V41.743A2.2,2.2,0,0,0,2.244,43.9H33.653A2.2,2.2,0,0,0,35.9,41.743V25.948H25.479a1.521,1.521,0,0,1-1.548-1.486v-12.1A1.521,1.521,0,0,1,25.479,10.872Zm-6.035,12.2a1.471,1.471,0,0,1-1.5,1.436H4.487a1.471,1.471,0,0,1-1.5-1.436V13.026a1.471,1.471,0,0,1,1.5-1.436H17.948a1.471,1.471,0,0,1,1.5,1.436Z" transform="translate(0 -1.517)"/>
    <path id="Shape-2" data-name="Shape" class="cls-2" d="M44.431,50.828A2.431,2.431,0,0,1,42,53.259h2.431a2.431,2.431,0,0,0,2.431-2.431V33H44.431Z" transform="translate(-11.698 -10.879)"/>
    <path id="Rectangle-path" class="cls-2" d="M45,8h2.431v3.241H45Z" transform="translate(-12.315 -1.517)"/>
    <path id="Shape-3" data-name="Shape" class="cls-3" d="M35.9,2.431V6.483H0V2.431A2.343,2.343,0,0,1,2.244,0H33.653A2.343,2.343,0,0,1,35.9,2.431Z"/>
    <path id="Shape-4" data-name="Shape" class="cls-4" d="M44.431,0H42a2.431,2.431,0,0,1,2.431,2.431V6.483h2.431V2.431A2.431,2.431,0,0,0,44.431,0Z" transform="translate(-11.698)"/>
    <rect id="Rectangle-path-2" data-name="Rectangle-path" class="cls-5" width="21.069" height="17.017" rx="2.07" transform="translate(21.31 8.226)"/>
    <path id="Shape-5" data-name="Shape" class="cls-6" d="M55.361,12H52.93a1.681,1.681,0,0,1,1.677,1.677V27.34a1.681,1.681,0,0,1-1.677,1.677h2.431a1.681,1.681,0,0,0,1.677-1.677V13.677A1.681,1.681,0,0,0,55.361,12Z" transform="translate(-14.659 -3.774)"/>
    <path id="Shape-6" data-name="Shape" class="cls-6" d="M41.912,33l-6.232,4.773A.42.42,0,0,1,35,37.441V33Z" transform="translate(-9.907 -9.191)"/>
    <rect id="Rectangle-path-3" data-name="Rectangle-path" class="cls-7" width="17.828" height="14.586" rx="2" transform="translate(3.241 9.033)"/>
  </g>
  <g id="Layer_11">
    <circle id="Oval" cx="0.81" cy="0.81" r="0.81" transform="translate(3.241 3.241)"/>
    <circle id="Oval-2" data-name="Oval" cx="0.81" cy="0.81" r="0.81" transform="translate(6.483 3.241)"/>
    <circle id="Oval-3" data-name="Oval" cx="0.81" cy="0.81" r="0.81" transform="translate(8.768 3.241)"/>
    <path id="Shape-7" data-name="Shape" d="M41.749,8.8H36.667V2.933A2.933,2.933,0,0,0,33.733,0H2.933A2.933,2.933,0,0,0,0,2.933V41.067A2.933,2.933,0,0,0,2.933,44h30.8a2.933,2.933,0,0,0,2.933-2.933v-15.4h5.083A2.253,2.253,0,0,0,44,23.416V11.051A2.253,2.253,0,0,0,41.749,8.8ZM2.933,1.467h30.8A1.467,1.467,0,0,1,35.2,2.933V5.867H1.467V2.933A1.467,1.467,0,0,1,2.933,1.467ZM35.2,41.067a1.467,1.467,0,0,1-1.467,1.467H2.933a1.467,1.467,0,0,1-1.467-1.467V7.333H35.2V8.8H25.717a2.253,2.253,0,0,0-2.251,2.251V23.416a2.253,2.253,0,0,0,2.2,2.251v3.288a1.112,1.112,0,0,0,1.8.88L32.9,25.667h2.3Zm7.333-17.651a.785.785,0,0,1-.784.784H30.067a.733.733,0,0,0,0,1.467h.424l-3.357,2.567V25.667a.733.733,0,0,0,0-1.467H25.717a.785.785,0,0,1-.784-.784V11.051a.785.785,0,0,1,.784-.784H41.749a.785.785,0,0,1,.784.784Z"/>
    <path id="Shape-8" data-name="Shape" d="M45.241,16A3.241,3.241,0,0,0,42,19.241a.81.81,0,0,0,1.621,0,1.621,1.621,0,1,1,1.621,1.621.81.81,0,0,0-.81.81v1.621a.81.81,0,1,0,1.621,0v-.912A3.241,3.241,0,0,0,45.241,16Z" transform="translate(-11.698 -4.513)"/>
    <circle id="Oval-4" data-name="Oval" cx="0.81" cy="0.81" r="0.81" transform="translate(32.88 20.459)"/>
    <path id="Shape-9" data-name="Shape" d="M6.431,29.207H21.017a2.431,2.431,0,0,0,2.431-2.431V15.431A2.431,2.431,0,0,0,21.017,13H6.431A2.431,2.431,0,0,0,4,15.431V26.776A2.431,2.431,0,0,0,6.431,29.207Zm-.81-13.776a.81.81,0,0,1,.81-.81H21.017a.81.81,0,0,1,.81.81V26.776a.81.81,0,0,1-.81.81H6.431a.81.81,0,0,1-.81-.81Z" transform="translate(-0.759 -3.967)"/>
    <path id="Shape-10" data-name="Shape" d="M4.81,37.621H25.879a.81.81,0,0,0,0-1.621H4.81a.81.81,0,0,0,0,1.621Z" transform="translate(-0.759 -9.696)"/>
    <path id="Shape-11" data-name="Shape" d="M4.81,41.621H25.879a.81.81,0,0,0,0-1.621H4.81a.81.81,0,1,0,0,1.621Z" transform="translate(-0.759 -10.773)"/>
    <path id="Shape-12" data-name="Shape" d="M4,44.81a.81.81,0,0,0,.81.81H37.224a.81.81,0,1,0,0-1.621H4.81A.81.81,0,0,0,4,44.81Z" transform="translate(-0.759 -11.85)"/>
    <path id="Shape-13" data-name="Shape" d="M37.224,48H4.81a.81.81,0,0,0,0,1.621H37.224a.81.81,0,1,0,0-1.621Z" transform="translate(-0.759 -13.056)"/>
    <path id="Shape-14" data-name="Shape" d="M13.724,52H4.81a.81.81,0,0,0,0,1.621h8.914a.81.81,0,0,0,0-1.621Z" transform="translate(-0.759 -14.483)"/>
  </g>
</svg>
