<svg id="help" xmlns="http://www.w3.org/2000/svg" width="44" height="44" viewBox="0 0 44 44">
  <defs>
    <style>
      .cls-1 {
        fill: #fdbf5e;
      }

      .cls-2 {
        fill: #fff;
      }

      .cls-3 {
        fill: #193651;
      }

      .cls-4 {
        fill: #4fbf9f;
      }

      .cls-5 {
        fill: #e1e6e9;
      }

      .cls-6 {
        fill: #f16051;
      }

      .cls-7 {
        fill: #cfd0d1;
      }
    </style>
  </defs>
  <circle id="Ellipse_1" data-name="Ellipse 1" class="cls-1" cx="14.122" cy="14.122" r="14.122" transform="translate(15.756 0)"/>
  <path id="Path_12" data-name="Path 12" class="cls-2" d="M275.319,41.008a9.017,9.017,0,0,0-9.268,14.269l-1.324,4.854,5.149-2.059a7.226,7.226,0,0,0,1.177.368,9.041,9.041,0,0,0,10.886-6.62A8.887,8.887,0,0,0,275.319,41.008Z" transform="translate(-242.131 -36.89)"/>
  <path id="Path_13" data-name="Path 13" class="cls-3" d="M257.728,53.952a.593.593,0,0,1-.221-.662l1.25-4.56a9.514,9.514,0,0,1-1.545-7.944,9.765,9.765,0,0,1,9.488-7.429,8.092,8.092,0,0,1,2.28.294,9.7,9.7,0,0,1-2.28,19.124h0a8.091,8.091,0,0,1-2.28-.294,7.557,7.557,0,0,1-1.03-.294L258.463,54.1A.7.7,0,0,1,257.728,53.952Zm8.973-19.2a8.334,8.334,0,0,0-8.091,6.4,8.162,8.162,0,0,0,1.545,7.061.793.793,0,0,1,.147.588l-.956,3.53,3.9-1.545a.628.628,0,0,1,.515,0c.441.147.809.294,1.1.368a9.128,9.128,0,0,0,1.986.221,8.334,8.334,0,0,0,8.091-6.4,8.243,8.243,0,0,0-6.178-10A11.591,11.591,0,0,0,266.7,34.755Z" transform="translate(-235.573 -30.194)"/>
  <circle id="Ellipse_2" data-name="Ellipse 2" class="cls-4" cx="6.252" cy="6.252" r="6.252" transform="translate(24.876 6.62)"/>
  <path id="Path_14" data-name="Path 14" class="cls-5" d="M32.43,314.837l-4.045-2.207L22.648,325.8,16.911,312.63l-4.045,2.207c-3.678,1.839-5.884,4.634-5.884,7.649v6.767H38.314V322.56C38.314,319.544,36.108,316.675,32.43,314.837Z" transform="translate(-6.319 -285.988)"/>
  <path id="Path_15" data-name="Path 15" class="cls-3" d="M32,323.909H.736A.737.737,0,0,1,0,323.173V316.48c0-3.31,2.354-6.4,6.252-8.311l4.045-2.133a1.252,1.252,0,0,1,.515-.074.886.886,0,0,1,.368.368l5.149,11.695L21.4,306.329a.886.886,0,0,1,.368-.368.453.453,0,0,1,.515.074l4.045,2.207c3.9,1.912,6.252,5,6.252,8.311v6.62A.623.623,0,0,1,32,323.909Zm-30.6-1.4H31.333V316.48c0-2.721-2.059-5.369-5.516-7.061l-3.383-1.839-5.443,12.5a.745.745,0,0,1-.662.441.707.707,0,0,1-.662-.441l-5.443-12.5L6.84,309.419c-3.457,1.692-5.516,4.34-5.516,7.061v6.031Z" transform="translate(0 -279.909)"/>
  <path id="Path_16" data-name="Path 16" class="cls-6" d="M150.089,338.289h3.6l-.735-8.091,1.03-1.471-2.133-2.133-2.133,2.133,1.03,1.471Z" transform="translate(-136.522 -298.628)"/>
  <path id="Path_17" data-name="Path 17" class="cls-7" d="M103.769,318.187l-.883-4.045-1.471-.736-5.737,13.166-5.737-13.166-1.4.736-.883,4.045,2.28-.221-1.324,1.765,6.178,9.562h1.839l6.1-9.562-1.25-1.765Z" transform="translate(-80.157 -286.691)"/>
  <path id="Path_18" data-name="Path 18" class="cls-2" d="M115.492,155.492c0,3.53-2.942,8.973-6.546,8.973s-6.546-5.516-6.546-8.973a6.546,6.546,0,0,1,13.092,0Z" transform="translate(-93.55 -136.17)"/>
  <path id="Path_19" data-name="Path 19" class="cls-3" d="M102.626,158.179c-4.119,0-7.208-5.884-7.208-9.709a7.208,7.208,0,1,1,14.416,0C109.834,152.294,106.745,158.179,102.626,158.179Zm0-15.593a6,6,0,0,0-5.884,5.884c0,3.236,2.648,8.311,5.884,8.311,3.163,0,5.884-5.075,5.884-8.311A6.05,6.05,0,0,0,102.626,142.585Z" transform="translate(-87.204 -129.14)"/>
  <path id="Path_20" data-name="Path 20" class="cls-6" d="M109.582,141.431c-2.8-.588-4.119.883-4.266,1.324-.074.074-.147.074-.221.147-4.119-.883-3.31,5.663-3.31,5.663a11.242,11.242,0,0,0,.736,3.6c0-.956.074-5.3,2.354-4.634a5.965,5.965,0,0,0,6.473.074s2.354-.883,2.721,4.487C114.584,150.846,117.82,143.27,109.582,141.431Z" transform="translate(-92.938 -129.01)"/>
  <g id="Group_21" data-name="Group 21" transform="translate(5.813 9.633)">
    <path id="Path_21" data-name="Path 21" class="cls-3" d="M95.334,145.539a.707.707,0,0,1-.662-.441,10.829,10.829,0,0,1-.809-3.825c-.074-.588-.441-4.192,1.324-5.811a2.719,2.719,0,0,1,2.5-.662c.588-.883,2.207-1.986,4.854-1.4,2.574.588,4.413,1.765,5.3,3.53,1.1,2.059.956,4.707-.294,7.87l-.074.147a.676.676,0,0,1-1.25-.515l.074-.147c1.1-2.8,1.25-5.075.368-6.767q-1.1-2.1-4.413-2.869c-2.354-.515-3.383.662-3.457.883a1.6,1.6,0,0,1-.294.368c-.074.074-.147.074-.221.147a.6.6,0,0,1-.515.074,1.662,1.662,0,0,0-1.618.294c-1.1.956-1.03,3.678-.883,4.634v.074a8.468,8.468,0,0,0,.736,3.31.649.649,0,0,1-.368.883C95.481,145.539,95.407,145.539,95.334,145.539Z" transform="translate(-90.702 -133.237)"/>
    <path id="Path_22" data-name="Path 22" class="cls-3" d="M71.826,319.509a.707.707,0,0,1-.662-.441l-5.443-12.5L62.338,308.4a.707.707,0,1,1-.662-1.25l4.045-2.207a1.251,1.251,0,0,1,.515-.074.886.886,0,0,1,.368.368l5.222,11.842L76.9,305.387a.886.886,0,0,1,.368-.368.453.453,0,0,1,.515.074l4.045,2.207a.707.707,0,0,1-.662,1.25l-3.383-1.839-5.443,12.5C72.341,319.362,72.12,319.509,71.826,319.509Z" transform="translate(-61.311 -288.599)"/>
  </g>
  <path id="Path_23" data-name="Path 23" class="cls-2" d="M341.582,102.674h-1.1v-.588a1.264,1.264,0,0,1,.074-.588,2.343,2.343,0,0,1,.441-.515l.736-.736a.81.81,0,0,0-.588-1.4,1.187,1.187,0,0,0-.662.221.908.908,0,0,0-.294.588h-1.177a2.277,2.277,0,0,1,.662-1.4,2.359,2.359,0,0,1,2.942,0,1.616,1.616,0,0,1,.588,1.324,1.356,1.356,0,0,1-.294.956c-.147.147-.221.294-.294.368a1.015,1.015,0,0,1-.294.221l-.294.294c-.074.074-.147.147-.147.221a.792.792,0,0,0-.147.588v.441h-.147Zm-.588,2.354a.754.754,0,1,1,.515-.221A.668.668,0,0,1,340.994,105.028Z" transform="translate(-309.118 -89.178)"/>
</svg>
