<?xml version="1.0" encoding="UTF-8"?>
<svg width="23px" height="23px" viewBox="0 0 23 23" version="1.1" xmlns="http://www.w3.org/2000/svg" xmlns:xlink="http://www.w3.org/1999/xlink">
    <!-- Generator: sketchtool 51.1 (57501) - http://www.bohemiancoding.com/sketch -->
    <title>18F0F465-B6F6-4634-8844-43270DDB86EE</title>
    <desc>Created with sketchtool.</desc>
    <defs></defs>
    <g id="Page-1" stroke="none" stroke-width="1" fill="none" fill-rule="evenodd">
        <g id="40-GOM--" transform="translate(-739.000000, -418.000000)">
            <g id="Group-3-Copy-2" transform="translate(739.000000, 418.000000)">
                <g id="Group-10">
                    <path d="M11.5,0 C5.14625,0 0,5.14625 0,11.5 C0,17.848 5.14625,23 11.5,23 C17.848,23 23,17.848 23,11.5 C23,5.14625 17.848,0 11.5,0 Z" id="Page-1" fill="#D0021B"></path>
                    <polygon id="Path" fill="#FFFFFF" points="12.5578035 13 10.4421965 13 10 5 13 5"></polygon>
                    <path d="M10,16.5 C10,16.0058799 10.1285701,15.6323542 10.3857143,15.3794118 C10.6428584,15.1264693 11.0171404,15 11.5085714,15 C11.9828595,15 12.3499987,15.1294105 12.61,15.3882353 C12.8700013,15.6470601 13,16.0176446 13,16.5 C13,16.9647082 12.8685727,17.330881 12.6057143,17.5985294 C12.3428558,17.8661778 11.9771452,18 11.5085714,18 C11.028569,18 10.6571442,17.869119 10.3942857,17.6073529 C10.1314273,17.3455869 10,16.976473 10,16.5 Z" id="Path" fill="#FFFFFF"></path>
                </g>
            </g>
        </g>
    </g>
</svg>