<?xml version="1.0" encoding="UTF-8"?>
<svg width="95px" height="95px" viewBox="0 0 95 95" version="1.1" xmlns="http://www.w3.org/2000/svg" xmlns:xlink="http://www.w3.org/1999/xlink">
    <!-- Generator: sketchtool 51.1 (57501) - http://www.bohemiancoding.com/sketch -->
    <title>D3B23EE4-1DE9-4DEB-8CE2-C0B30578E830</title>
    <desc>Created with sketchtool.</desc>
    <defs></defs>
    <g id="Page-1" stroke="none" stroke-width="1" fill="none" fill-rule="evenodd" opacity="0.136049107">
        <g id="39-GOM" transform="translate(-424.000000, -235.000000)" fill="#000000" fill-rule="nonzero">
            <path d="M471.49905,235 C445.266067,235 424,256.267125 424,282.5 C424,308.732875 445.266067,330 471.49905,330 C497.730767,330 519,308.732241 519,282.5 C519,256.266175 497.730767,235 471.49905,235 Z M458.990235,261.11784 L469.085415,250.991581 C469.746606,250.32893 470.610261,250 471.474871,250 C471.483148,250 471.492061,250 471.499702,250 C471.508933,250 471.516892,250 471.524532,250 C472.388824,250 473.254389,250.32893 473.91558,250.991581 L484.009168,261.11784 C485.330277,262.442183 485.330277,264.58981 484.009168,265.913514 C483.349569,266.576165 482.483368,266.907331 481.619076,266.907331 C480.752874,266.907331 479.888583,266.576165 479.228983,265.913514 L474.767138,261.438467 L474.767138,271.740369 L474.767138,278.366555 L474.767138,279.608187 C474.767138,281.481812 473.252797,283 471.385418,283 C469.51772,283 468.005289,281.481812 468.005289,279.608187 L468.005289,278.366555 L468.005289,271.740369 L468.005289,261.668399 L463.77233,265.914153 C463.111139,266.576804 462.246529,266.907969 461.382237,266.907969 C460.516036,266.907969 459.651744,266.576804 458.99119,265.914153 C457.669763,264.58981 457.669763,262.441225 458.990235,261.11784 Z M498,300.913918 L497.999044,300.913918 C497.999044,305.448007 493.518588,309 487.797934,309 L456.201109,309 C450.481412,309 446,305.448007 446,300.913918 L446,279.087031 C446,274.552309 450.480456,271 456.201109,271 L460.467376,271 C460.95249,271.086032 461.44876,271.136323 461.952043,271.136323 C462.452138,271.136323 462.944902,271.0854 463.427785,271 L463.622851,271 L463.622851,277.562805 L456.201109,277.562805 C453.885501,277.562805 452.61343,278.70811 452.61343,279.087031 L452.61343,300.913918 C452.61343,301.292839 453.885819,302.437195 456.201109,302.437195 L487.798891,302.437195 C490.114499,302.437195 491.38657,301.29189 491.38657,300.913918 L491.38657,279.087031 C491.38657,278.70811 490.114181,277.562805 487.798891,277.562805 L480.313402,277.562805 L480.313402,271 L480.771424,271 C481.243471,271.081288 481.723804,271.136323 482.214018,271.136323 C482.717301,271.136323 483.212615,271.086349 483.698685,271 L487.798891,271 C493.519544,271 498,274.552942 498,279.087031 L498,300.913918 Z" id="Shape"></path>
        </g>
    </g>
</svg>