<?xml version="1.0" encoding="UTF-8"?>
<svg width="122px" height="51px" viewBox="0 0 122 51" version="1.1" xmlns="http://www.w3.org/2000/svg" xmlns:xlink="http://www.w3.org/1999/xlink">
    <!-- Generator: sketchtool 51.1 (57501) - http://www.bohemiancoding.com/sketch -->
    <title>1A41EBC3-EAF8-49AF-B8AB-B14E271495D1</title>
    <desc>Created with sketchtool.</desc>
    <defs></defs>
    <g id="Page-1" stroke="none" stroke-width="1" fill="none" fill-rule="evenodd">
        <g id="39-GOM" transform="translate(-477.000000, -495.000000)">
            <g id="Group-4" transform="translate(477.000000, 495.000000)">
                <text id="Verified" font-family="Roboto-Regular, Roboto" font-size="18" font-weight="normal" fill="#000000">
                    <tspan x="62" y="33">Verified</tspan>
                </text>
                <g id="medal-copy" fill-rule="nonzero">
                    <polygon id="Shape" fill="#F9DC26" points="25.4960629 50.9937006 19.7762013 46.8408165 12.747244 47.5782408 9.87117095 41.1229233 3.41388497 38.2464566 4.15288414 31.2174993 0 25.4960629 4.15288414 19.7762013 3.41388497 12.747244 9.87117095 9.87117095 12.747244 3.41388497 19.7762013 4.15288414 25.4960629 -5.68434189e-14 31.2174993 4.15288414 38.2464566 3.41388497 41.1229233 9.87117095 47.5782408 12.747244 46.8408165 19.7762013 50.9937006 25.4960629 46.8408165 31.2174993 47.5782408 38.2464566 41.1229233 41.1229233 38.2464566 47.5782408 31.2174993 46.8408165"></polygon>
                    <path d="M41.6997128,25.4960629 C41.6997128,34.4451581 34.4451581,41.6997128 25.4960629,41.6997128 C16.5473613,41.6997128 9.29280666,34.4451581 9.29280666,25.4960629 C9.29280666,16.5473613 16.5473613,9.29280666 25.4960629,9.29280666 C34.4451581,9.29280666 41.6997128,16.5473613 41.6997128,25.4960629 Z" id="Shape" fill="#4BC18F"></path>
                    <g id="Group" transform="translate(17.335968, 19.452569)" fill="#FFFFFF">
                        <polygon id="Shape" points="6.06514789 13.1956831 0.0582695158 7.18919837 2.34967885 4.89778903 6.06514789 8.61325807 14.641397 0.0370090672 16.9328063 2.32802462"></polygon>
                    </g>
                </g>
            </g>
        </g>
    </g>
</svg>