<?xml version="1.0" encoding="UTF-8"?>
<svg width="19px" height="27px" viewBox="0 0 19 27" version="1.1" xmlns="http://www.w3.org/2000/svg" xmlns:xlink="http://www.w3.org/1999/xlink">
    <!-- Generator: sketchtool 51.1 (57501) - http://www.bohemiancoding.com/sketch -->
    <title>CDE1EC49-0001-4DFC-9B38-16249593030F</title>
    <desc>Created with sketchtool.</desc>
    <defs></defs>
    <g id="Page-1" stroke="none" stroke-width="1" fill="none" fill-rule="evenodd">
        <g id="39-GOM" transform="translate(-172.000000, -416.000000)" fill="#000000" fill-rule="nonzero">
            <g id="Group-7" transform="translate(172.000000, 416.000000)">
                <g id="document">
                    <path d="M12.6863033,2.05977105 L8.11116799,2.05977105 C8.11116799,1.16383688 7.53201595,0.407097302 6.72982406,0.124403107 C6.51557096,0.0491762061 6.2891601,0 6.04876779,0 C4.91135297,0 3.98636759,0.924192559 3.98636759,2.05977105 L3.98636759,9.07419665 C3.98636759,10.2097751 4.91135297,11.1340229 6.04876779,11.1340229 C6.2891601,11.1340229 6.51557096,11.0847915 6.72982406,11.009675 C7.53201595,10.7269256 8.11116799,9.97018602 8.11116799,9.07419665 L8.11116799,6.23505724 C8.11116799,5.78491006 7.77235299,5.42831357 7.33771265,5.36826451 C7.29764727,5.36257972 7.26117395,5.34431112 7.2192849,5.34431112 C6.72634252,5.34431112 6.32740181,5.74318479 6.32740181,6.23505724 L6.32740181,9.07419665 C6.32740181,9.22774121 6.20195571,9.35258585 6.04871253,9.35258585 C5.89546934,9.35258585 5.77002324,9.22774121 5.77002324,9.07419665 L5.77002324,3.6815924 L12.0775305,3.67728741 L12.0775305,7.15450327 C12.0775305,8.17092191 12.9039827,8.99593418 13.9204277,8.99593418 L17.3327826,8.98638594 L17.3702507,24.3456439 C17.3702507,24.9127433 16.9104659,25.3733769 16.3417585,25.3733769 L2.65735734,25.3733769 C2.08931309,25.3733769 1.62775986,24.9127433 1.62775986,24.3456439 L1.62775986,4.71412715 C1.62775986,4.15089125 2.08505787,3.69334832 2.64862585,3.68854661 L2.64862585,2.06065413 C1.18709589,2.06545585 0,3.254074 0,4.71412715 L0,24.3456439 C0,25.8087326 1.1915169,27 2.65735734,27 L16.3417585,27 C17.8066594,27 19,25.8087326 19,24.3456439 L19,8.34229354 L12.6863033,2.05977105 Z M5.7700785,2.05977105 C5.7700785,1.90622649 5.8955246,1.78143704 6.04876779,1.78143704 C6.20201098,1.78143704 6.32745708,1.90622649 6.32745708,2.05977105 L5.7700785,2.05977105 Z" id="Shape"></path>
                </g>
            </g>
        </g>
    </g>
</svg>